<?xml version="1.0" encoding="utf-8"?>
<!-- Generator: Adobe Illustrator 21.0.0, SVG Export Plug-In . SVG Version: 6.00 Build 0)  -->
<svg version="1.1" id="Layer_1" xmlns="http://www.w3.org/2000/svg" xmlns:xlink="http://www.w3.org/1999/xlink" x="0px" y="0px"
	 viewBox="0 0 500 500" style="enable-background:new 0 0 500 500;" xml:space="preserve">
<path d="M384.2,129.9c7.8-4.2,8.1-4.1,12.7,3.9c11.5,20.2,11.5,40.7,0.1,60.8c-3.6,6.4-3.7,11.3-0.5,17.7
	c10.5,21.3,13.7,44.6,17.3,67.7c0.2,1.1-0.4,1.6-1.5,1.5c-5.4-1.1-8.3-6.9-15.2-8.2c5.4,24.2,9.4,47.8,6.3,71.7
	c-3.1,23.8-11.1,46.4-19.9,69c-3.7-12.7-7.4-25.4-11-38c-7.9,23.3-16.7,45.2-31.3,64.5c-14.6,19.4-33.7,33.8-53.6,49.9
	c0.4-14.1,6.4-25.3,5.8-38.8c-2.6,2.1-3.9,3-5.1,4.2c-10.9,10.7-22,21.4-32.7,32.4c-3.9,4-6.6,3.9-10.4,0
	c-8.3-8.6-16.8-16.9-25.5-25.1c-3.8-3.6-6.7-8.4-13-10.4c0.4,12.8,6.2,24,6,38.3c-13.9-12-26.3-22.2-38.1-33.2
	c-11.6-10.8-20.5-23.8-28.1-37.7c-7.6-13.9-11.5-29.2-16.9-46.2c-6.3,14.8-7.1,28.4-14.2,42.5c-6-22.8-13.1-42.8-16.9-63.8
	c-4.8-26.4-0.7-52.4,5-78.6c-7.2,0.5-10,7.7-17.2,7.7c4.6-24.1,7.2-47.9,18-69.5c2.9-5.9,3.8-10.8-0.3-16.5
	c-2.4-3.4-3.8-7.6-5.3-11.6c-6.7-18.6-3.7-36,6.5-52.5c1.9-3.1,3.9-5.4,8.2-3c12.5,7.1,25.1,13.8,38.4,21.1
	c-3.2,3.8-5.4,6.3-8.3,9.7c5.1-0.1,7.9-2.1,10.9-3.6c18.9-8.8,37.9-17.5,56.5-26.7c9.4-4.7,17.9-4.4,26.3,1.8c2,1.5,4.5,2.5,6.4,4.2
	c4.7,4,9,3.7,13.6-0.1c1.9-1.6,4.4-2.6,6.4-4.2c8.4-6.4,17-6.2,26.3-1.6c16.8,8.3,33.8,16.1,50.8,24c4.9,2.3,9.5,5.5,15.9,6.4
	c-1.3-4.3-5.9-5.5-6.4-10.5C361.3,142.6,372.7,136.2,384.2,129.9z M231.5,267.6c2.8,3,5.5,2,7.8,1.3c8.1-2.4,15.9-1.5,23.9,0.3
	c9.7,2.2,9.7,1.9,11.3-8.7c1,0.8,2.2,1.3,2.7,2.2c8.7,16.9,8.7,16.9-5.9,28.7c-3.6,2.9-7.1,6.2-11,8.7c-5.7,3.7-7.2,8.6-7.1,15.1
	c0.1,5.7,2.3,8.5,7.2,10.5c6.3,2.6,12.3,5.7,18.6,8.4c5,2.1,9.9,7.1,15.1,5.5c6.8-2.1,12.2-7.7,17.4-12.6c4.3-4,4-9.1,1.8-14.2
	c-3.3-7.4-6.4-14.9-10.1-22c-2.8-5.3-2.7-9.2,2.4-13.1c5.4-4.1,10.3-8.9,15.3-13.5c8.1-7.3,10.8-16,6.4-26.4
	c-2.6-6.3-4.8-12.7-7.5-19c-3-6.9-6.4-7.4-10.6-1.7c-9.3,12.7-21.6,16.8-36.3,12.2c-8.9-2.8-8.9-2.8-13.5-17.7
	c7.5,8.8,14.4,6.3,21.6,3.9c10-3.5,20-7.1,30.9-7.3c5.6-0.1,7.7-5.2,4.5-9.8c-1.4-2-3.6-3.6-5.6-5.1c-10.1-7-20.5-13.8-30.5-21
	c-5.4-3.9-10.8-5.2-16.5-1.7c-8.8,5.4-17.2,6-26.1,0.2c-5.5-3.6-11-2.8-16.5,1.2c-10.3,7.5-21,14.5-31.5,21.8
	c-2,1.4-4.2,3.2-5.4,5.2c-2.6,4.2-0.4,9,4.4,9.1c10.9,0.1,20.9,3.6,30.9,7.2c8,2.9,15.5,4.5,23.4-1.9
	C238.9,231.7,235.1,249.9,231.5,267.6z M206.1,228.9c-5.9-2.6-11.3-4.6-14.6-11.2c-3.3-6.6-7.5-6.1-10.4,0.6
	c-2.9,6.6-5.2,13.5-7.9,20.2c-4,10-1.3,18.3,6.3,25.4c4.4,4.1,8.9,7.9,13.3,11.9c7.9,7.2,9.2,5.7,3.9,16.8
	c-2.9,6.1-5.8,12.3-8.4,18.6c-3.9,9.3-3.1,12.6,4.4,18.9c13.5,11.3,13.5,11.3,29.9,3.7c5-2.3,10-4.6,15-7c12.7-6,14.1-17.3,3.2-26.4
	c-5.6-4.6-11.1-9.3-17-13.4c-6.1-4.2-8-8.6-5.1-16c4.4-11,7.6-22.6,11.2-33.9c0.7-2.3,1.2-4.6,2.3-8.7
	C222.5,231.7,214.4,232.5,206.1,228.9z M248,369.2c0.7-1.5,3-2.3,4.2-0.4c3,4.7,6.9,4.6,12,4.5c7.5-0.1-0.3,5.9,3.3,8.8
	c10-7.6,16.1-18.2,20.2-30.2c1.4-3.9,0.5-6.4-3.4-8.1c-10.1-4.5-20.1-9.2-30.1-13.9c-3-1.4-5.6-1.1-8.5,0.3
	c-9.6,4.6-19.2,9.1-28.9,13.4c-4.4,1.9-5.5,4.4-3.9,9c4.1,11.8,10.4,22,20.1,30.1c3.3-3.3-2-6,1.5-9.5
	C238.3,372.3,244.7,376.1,248,369.2z M204.1,87.3c-17.1-0.9-29.5-5.7-40.1-15.2c-3.6-3.2-4.8-5.5-1.3-10.3c5-7.1,2.7-14.9-3.8-18.6
	c-6.2-3.5-14.5-1.2-17.8,4.9c-3.3,6.2-1.4,15.5,5.3,17.3c8.8,2.5,10.2,8.8,12.4,15.7c4.6,14.6,9.4,29.1,14.2,43.7
	c4.4,13.6,4.4,13.6,17.9,7.3c6.9-3.3,14-6.3,20.8-9.9c8.3-4.3,16.6-4.9,23.9,1.4c10.4,9,19.8,8.7,30-0.2c6.8-5.9,14.7-5.5,22.7-1.5
	c9.1,4.5,18.6,8.4,27.6,13.2c5.9,3.1,8.3,1.2,10.1-4.5c5.3-17.1,11-34,16.3-51.1c1.9-6.1,3.6-11.3,11.2-13.6
	c7.4-2.4,9.6-11.7,5.9-18.1c-3.2-5.4-11-7.7-16.9-4.9c-6.8,3.2-10,11.7-4.9,18.2c4.7,6.1,1.9,8.7-2.2,12.3
	c-11.5,9.9-25,14.4-40,13.9c-11.3-0.3-20.4-5.4-27.3-14.4c-7.2-9.3-10.9-20.1-14-31.3c-1-3.8-0.6-6.5,3.1-8.4
	c1.4-0.8,2.7-2.1,3.7-3.4c4-5.5,3.1-12.9-1.9-17.3c-5.1-4.5-12.4-4.4-17.4,0.3c-4.9,4.6-6.5,13.4-1.2,17.1c10,6.8,6,14.1,3.3,22
	c-2.5,7.3-5.7,14.2-10.4,20.4C224.9,82.9,214.6,87.7,204.1,87.3z"/>
</svg>
